<?xml version="1.0" standalone="no"?>
<!DOCTYPE svg PUBLIC "-//W3C//DTD SVG 20010904//EN"
 "http://www.w3.org/TR/2001/REC-SVG-20010904/DTD/svg10.dtd">
<svg version="1.0" xmlns="http://www.w3.org/2000/svg"
 width="500.000000pt" height="500.000000pt" viewBox="0 0 500.000000 500.000000"
 preserveAspectRatio="xMidYMid meet">

<g transform="translate(0.000000,500.000000) scale(0.100000,-0.100000)"
fill="#068333" stroke="none">
<path d="M0 2500 l0 -2500 2500 0 2500 0 0 2500 0 2500 -2500 0 -2500 0 0
-2500z m1619 349 c61 -53 86 -68 94 -60 6 6 43 11 84 11 l73 0 0 -71 c0 -68 1
-72 42 -120 22 -27 38 -52 34 -56 -4 -4 -39 -9 -78 -11 -56 -4 -70 -2 -66 9 3
8 14 15 26 17 27 4 28 14 2 37 -17 15 -20 31 -20 92 0 58 -3 73 -15 73 -9 0
-15 -9 -15 -24 0 -85 -41 -77 -170 34 l-105 89 -146 -142 c-80 -78 -147 -145
-148 -149 0 -5 15 -8 34 -8 l35 0 0 -235 0 -235 50 0 50 0 0 148 c0 102 4 152
12 160 8 8 54 12 140 12 l128 0 0 -160 0 -160 1107 0 1106 0 40 -40 c37 -38
39 -44 34 -86 -6 -59 -23 -77 -19 -20 4 45 -18 103 -41 112 -7 2 -525 5 -1152
7 l-1140 2 -3 158 -3 157 -69 0 -70 0 0 -150 c0 -178 6 -170 -134 -170 l-96 0
0 234 0 235 -45 3 c-25 2 -44 8 -43 13 5 22 368 365 386 365 11 0 56 -32 101
-71z m210 -498 c11 -7 13 -23 8 -70 -4 -33 -2 -72 3 -86 8 -21 7 -25 -9 -25
-12 0 -21 11 -27 32 -13 46 -34 48 -34 4 0 -29 -4 -36 -20 -36 -19 0 -20 7
-20 95 l0 95 43 0 c23 0 48 -4 56 -9z m81 -86 c0 -78 -3 -95 -15 -95 -12 0
-15 17 -15 95 0 78 3 95 15 95 12 0 15 -17 15 -95z m130 80 c0 -9 -9 -15 -25
-15 -20 0 -25 -5 -25 -25 0 -18 5 -25 20 -25 11 0 20 -7 20 -15 0 -8 -9 -15
-20 -15 -15 0 -20 -7 -20 -25 0 -20 5 -25 25 -25 16 0 25 -6 25 -15 0 -11 -12
-15 -45 -15 l-45 0 0 95 0 95 45 0 c33 0 45 -4 45 -15z m70 -65 c0 -79 0 -80
25 -80 16 0 25 -6 25 -15 0 -11 -11 -15 -40 -15 l-40 0 0 95 c0 78 3 95 15 95
12 0 15 -16 15 -80z m170 65 c0 -8 -7 -15 -15 -15 -12 0 -15 -16 -15 -80 0
-73 -2 -80 -20 -80 -18 0 -20 7 -20 80 0 64 -3 80 -15 80 -8 0 -15 7 -15 15 0
11 12 15 50 15 38 0 50 -4 50 -15z m128 3 c7 -7 12 -41 12 -83 0 -80 -9 -95
-55 -95 -17 0 -36 5 -43 12 -13 13 -17 159 -5 171 11 12 78 8 91 -5z m153 -15
c7 -20 7 -39 0 -65 -8 -25 -8 -44 -1 -63 13 -35 13 -35 -9 -35 -14 0 -21 10
-25 35 -4 21 -13 35 -21 35 -10 0 -15 -11 -15 -35 0 -24 -5 -35 -15 -35 -12 0
-15 17 -15 95 l0 95 45 0 c40 0 47 -3 56 -27z m193 -55 c9 -46 16 -89 16 -95
0 -21 -27 -15 -33 7 -3 14 -14 20 -31 20 -19 0 -26 -5 -26 -20 0 -11 -7 -20
-15 -20 -19 0 -19 6 1 108 16 79 18 82 44 82 26 0 28 -3 44 -82z m103 35 l21
-48 1 48 c1 35 5 47 16 47 12 0 15 -17 15 -95 0 -112 -13 -123 -50 -42 l-24
52 -4 -52 c-2 -38 -7 -53 -18 -53 -11 0 -14 19 -14 95 0 85 2 95 18 95 12 0
25 -16 39 -47z m191 35 c7 -7 12 -41 12 -85 0 -82 -9 -93 -74 -93 l-36 0 0 95
0 95 43 0 c24 0 48 -5 55 -12z m202 -3 c0 -8 -9 -15 -20 -15 -18 0 -20 -7 -20
-80 0 -64 -3 -80 -15 -80 -12 0 -15 16 -15 80 0 73 -2 80 -20 80 -11 0 -20 7
-20 15 0 12 13 15 55 15 42 0 55 -3 55 -15z m131 -12 c7 -20 7 -39 0 -65 -8
-25 -8 -44 -1 -63 13 -35 13 -35 -9 -35 -14 0 -21 10 -25 35 -4 21 -13 35 -21
35 -10 0 -15 -11 -15 -35 0 -24 -5 -35 -15 -35 -12 0 -15 17 -15 95 l0 95 45
0 c40 0 47 -3 56 -27z m124 5 c26 -113 35 -154 35 -160 0 -17 -32 -6 -37 12
-3 13 -14 20 -28 20 -14 0 -25 -7 -28 -20 -3 -11 -12 -20 -21 -20 -20 0 -23
-22 19 168 4 15 13 22 30 22 17 0 26 -7 30 -22z m118 -25 l22 -48 3 48 c2 33
7 47 18 47 11 0 14 -19 14 -95 0 -114 -16 -126 -54 -42 l-24 52 -1 -52 c-1
-40 -5 -53 -16 -53 -12 0 -15 17 -15 95 0 79 3 95 15 95 9 0 25 -21 38 -47z
m187 32 c0 -10 -10 -15 -31 -15 -26 0 -30 -3 -27 -22 2 -15 11 -24 26 -26 28
-4 46 -36 37 -70 -8 -33 -21 -42 -62 -42 -23 0 -33 5 -33 15 0 10 10 15 30 15
25 0 30 4 30 24 0 18 -7 25 -30 29 -35 7 -49 44 -31 83 9 20 18 24 51 24 29 0
40 -4 40 -15z m-624 -321 c-3 -9 -6 -31 -6 -50 0 -19 -4 -34 -10 -34 -5 0 -10
18 -10 40 0 22 -4 40 -10 40 -5 0 -10 5 -10 10 0 6 12 10 26 10 20 0 25 -4 20
-16z m76 -34 c3 -54 -3 -63 -20 -27 l-11 22 0 -22 c-2 -47 -21 -21 -21 27 0
46 2 50 24 50 22 0 24 -5 28 -50z m67 13 c16 -58 15 -66 -9 -51 -17 11 -22 10
-31 -2 -7 -11 -8 -2 -3 30 11 73 27 82 43 23z m76 -13 c0 -39 -3 -45 -22 -48
-21 -3 -23 0 -23 48 0 48 2 51 23 48 19 -3 22 -9 22 -48z m53 39 c-22 -12 -23
-29 -3 -29 8 0 15 -4 15 -10 0 -5 -7 -10 -15 -10 -8 0 -15 -4 -15 -10 0 -5 7
-10 15 -10 8 0 15 -4 15 -10 0 -5 -9 -10 -20 -10 -17 0 -20 7 -20 50 0 45 2
50 23 50 20 -1 20 -2 5 -11z m90 4 c-22 -6 -23 -29 -2 -37 25 -10 13 -51 -16
-53 -25 -3 -25 -3 -2 7 27 12 28 27 2 35 -19 6 -27 35 -13 48 3 4 16 6 27 6
17 -1 18 -2 4 -6z m65 0 c-7 -2 -13 -11 -13 -18 0 -7 6 -16 13 -18 9 -4 8 -8
-3 -17 -11 -9 -12 -13 -2 -17 19 -8 14 -23 -8 -23 -17 0 -20 7 -20 50 0 45 2
50 23 49 12 0 16 -3 10 -6z m82 -45 c0 -52 -8 -62 -20 -25 l-8 22 -4 -22 c-8
-42 -23 -24 -23 28 0 49 1 50 28 47 25 -3 27 -6 27 -50z m35 23 c0 -17 5 -33
10 -36 6 -4 10 6 10 24 0 16 5 33 11 37 8 5 9 -6 4 -37 -8 -49 -12 -59 -25
-59 -9 0 -14 14 -25 68 -4 20 -3 32 4 32 6 0 11 -13 11 -29z m67 -48 c-2 -16
-4 -3 -4 27 0 30 2 43 4 28 2 -16 2 -40 0 -55z m51 66 c-24 -13 -23 -25 3 -32
31 -8 22 -51 -11 -55 -24 -4 -25 -3 -5 12 19 15 19 17 3 30 -27 20 -23 56 5
56 20 -1 20 -2 5 -11z m-948 -43 c63 -13 195 -47 294 -75 207 -59 342 -81 487
-81 120 0 165 10 211 47 l33 27 -34 -36 c-72 -77 -206 -107 -404 -89 -128 12
-190 26 -435 97 -283 82 -382 98 -592 98 -172 0 -191 -2 -270 -26 -47 -15 -86
-25 -88 -23 -5 5 129 53 193 69 95 23 110 24 305 21 152 -3 205 -8 300 -29z
m-80 -96 c70 -21 129 -32 177 -33 40 -1 69 -5 64 -10 -15 -15 -211 -26 -449
-27 -216 0 -242 2 -228 15 16 17 51 21 41 5 -4 -7 61 -10 187 -9 117 0 185 4
173 9 -11 5 -15 9 -9 9 5 1 19 7 29 15 18 13 17 15 -20 24 -102 27 -95 28 -95
-12 0 -24 -5 -36 -14 -36 -11 0 -13 10 -9 41 l6 42 -92 -5 c-83 -4 -99 -8
-171 -45 -89 -46 -105 -48 -33 -6 127 74 252 81 443 23z m232 -82 c-4 -16 -7
-18 -10 -8 -3 8 -10 18 -16 22 -6 5 -2 8 11 8 17 0 20 -4 15 -22z m-760 5
c-40 -2 -103 -2 -140 0 -37 2 -4 3 73 3 77 0 107 -2 67 -3z m-225 -9 c-3 -3
-12 -4 -19 -1 -8 3 -5 6 6 6 11 1 17 -2 13 -5z m832 -8 c-2 -2 -22 -6 -44 -9
-27 -4 -35 -3 -25 3 14 9 79 15 69 6z m-751 -13 c-10 -2 -28 -2 -40 0 -13 2
-5 4 17 4 22 1 32 -1 23 -4z m445 -80 c-13 -2 -33 -2 -45 0 -13 2 -3 4 22 4
25 0 35 -2 23 -4z m-120 -10 c-13 -2 -35 -2 -50 0 -16 2 -5 4 22 4 28 0 40 -2
28 -4z"/>
<path d="M1770 2301 c0 -25 4 -31 21 -31 16 0 20 5 17 27 -2 17 -10 29 -20 31
-14 3 -18 -3 -18 -27z"/>
<path d="M2340 2270 c0 -46 4 -62 16 -67 24 -9 35 16 32 72 -3 43 -6 50 -25
53 -22 3 -23 0 -23 -58z"/>
<path d="M2490 2300 c0 -23 4 -30 20 -30 16 0 20 7 20 30 0 23 -4 30 -20 30
-16 0 -20 -7 -20 -30z"/>
<path d="M2700 2298 c0 -15 -3 -33 -6 -42 -4 -11 0 -16 15 -16 18 0 20 4 14
33 -8 42 -23 59 -23 25z"/>
<path d="M2990 2265 c0 -58 2 -66 18 -63 14 3 17 14 17 63 0 49 -3 60 -17 63
-16 3 -18 -5 -18 -63z"/>
<path d="M3310 2300 c0 -23 4 -30 20 -30 16 0 20 7 20 30 0 23 -4 30 -20 30
-16 0 -20 -7 -20 -30z"/>
<path d="M3467 2299 c-11 -39 -8 -59 8 -59 16 0 19 31 6 64 -7 18 -8 18 -14
-5z"/>
<path d="M3230 2011 c0 -12 5 -21 10 -21 6 0 10 6 10 14 0 8 -4 18 -10 21 -5
3 -10 -3 -10 -14z"/>
<path d="M3300 2003 c0 -13 5 -23 10 -23 13 0 13 11 0 30 -8 12 -10 11 -10 -7z"/>
<path d="M3370 1990 c0 -16 5 -30 10 -30 6 0 10 14 10 30 0 17 -4 30 -10 30
-5 0 -10 -13 -10 -30z"/>
<path d="M3660 2011 c0 -12 5 -21 10 -21 6 0 10 6 10 14 0 8 -4 18 -10 21 -5
3 -10 -3 -10 -14z"/>
<path d="M2898 1843 c12 -2 32 -2 45 0 12 2 2 4 -23 4 -25 0 -35 -2 -22 -4z"/>
</g>
</svg>
