<?xml version="1.0" encoding="UTF-8"?>
<!DOCTYPE svg PUBLIC "-//W3C//DTD SVG 1.1//EN" "http://www.w3.org/Graphics/SVG/1.1/DTD/svg11.dtd">
<svg xmlns="http://www.w3.org/2000/svg" version="1.1" width="500px" height="500px" style="shape-rendering:geometricPrecision; text-rendering:geometricPrecision; image-rendering:optimizeQuality; fill-rule:evenodd; clip-rule:evenodd" xmlns:xlink="http://www.w3.org/1999/xlink">
<g><path style="opacity:1" fill="#000000" d="M -0.5,-0.5 C 166.167,-0.5 332.833,-0.5 499.5,-0.5C 499.5,166.167 499.5,332.833 499.5,499.5C 332.833,499.5 166.167,499.5 -0.5,499.5C -0.5,332.833 -0.5,166.167 -0.5,-0.5 Z"/></g>
<g><path style="opacity:1" fill="#f29a14" d="M 127.5,242.5 C 127.5,258.167 127.5,273.833 127.5,289.5C 131.042,289.813 134.375,289.479 137.5,288.5C 137.334,278.494 137.5,268.494 138,258.5C 138.75,257.874 139.584,257.374 140.5,257C 149.01,256.177 157.344,256.343 165.5,257.5C 165.5,268.167 165.5,278.833 165.5,289.5C 239.5,289.5 313.5,289.5 387.5,289.5C 386.9,290.9 385.9,291.9 384.5,292.5C 309.167,292.5 233.833,292.5 158.5,292.5C 158.5,281.833 158.5,271.167 158.5,260.5C 153.833,260.5 149.167,260.5 144.5,260.5C 144.832,270.855 144.499,281.188 143.5,291.5C 135.89,292.467 128.223,292.8 120.5,292.5C 120.5,276.833 120.5,261.167 120.5,245.5C 117.428,245.817 114.428,245.484 111.5,244.5C 123.959,232.541 136.292,220.375 148.5,208C 150.5,207.333 152.5,207.333 154.5,208C 159.667,212.5 164.833,217 170,221.5C 170.833,220.667 171.667,219.833 172.5,219C 177.419,218.198 182.252,218.365 187,219.5C 187.333,224.833 187.667,230.167 188,235.5C 190.553,237.716 192.72,240.216 194.5,243C 194.095,243.945 193.428,244.612 192.5,245C 188.179,245.499 183.846,245.666 179.5,245.5C 179.5,244.5 179.5,243.5 179.5,242.5C 181.288,242.785 182.955,242.452 184.5,241.5C 183.185,239.684 181.685,238.017 180,236.5C 179.828,231.798 179.328,227.132 178.5,222.5C 177.686,224.766 177.186,227.1 177,229.5C 175.806,230.43 174.473,231.097 173,231.5C 165.078,226.084 157.578,220.084 150.5,213.5C 140.38,222.119 130.713,231.285 121.5,241C 123.586,241.315 125.586,241.815 127.5,242.5 Z"/></g>
<g><path style="opacity:1" fill="#472d07" d="M 127.5,242.5 C 128.496,257.658 128.83,272.991 128.5,288.5C 131.5,288.5 134.5,288.5 137.5,288.5C 134.375,289.479 131.042,289.813 127.5,289.5C 127.5,273.833 127.5,258.167 127.5,242.5 Z"/></g>
<g><path style="opacity:1" fill="#eb9513" d="M 172.5,263.5 C 183.638,261.293 186.971,265.293 182.5,275.5C 183.167,277.5 183.833,279.5 184.5,281.5C 183.167,282.833 181.833,282.833 180.5,281.5C 177.785,273.221 176.452,273.554 176.5,282.5C 175.167,282.5 173.833,282.5 172.5,282.5C 172.5,276.167 172.5,269.833 172.5,263.5 Z"/></g>
<g><path style="opacity:1" fill="#e49113" d="M 187.5,263.5 C 188.833,263.5 190.167,263.5 191.5,263.5C 191.5,269.833 191.5,276.167 191.5,282.5C 190.167,282.5 188.833,282.5 187.5,282.5C 187.5,276.167 187.5,269.833 187.5,263.5 Z"/></g>
<g><path style="opacity:1" fill="#f69c14" d="M 198.5,270.5 C 199.568,271.434 200.901,271.768 202.5,271.5C 202.5,272.5 202.5,273.5 202.5,274.5C 201.167,274.5 199.833,274.5 198.5,274.5C 198.5,276.167 198.5,277.833 198.5,279.5C 200.167,279.5 201.833,279.5 203.5,279.5C 203.5,280.5 203.5,281.5 203.5,282.5C 200.5,282.5 197.5,282.5 194.5,282.5C 194.5,276.167 194.5,269.833 194.5,263.5C 197.5,263.5 200.5,263.5 203.5,263.5C 203.5,264.5 203.5,265.5 203.5,266.5C 201.833,266.5 200.167,266.5 198.5,266.5C 198.5,267.833 198.5,269.167 198.5,270.5 Z"/></g>
<g><path style="opacity:1" fill="#e69213" d="M 210.5,263.5 C 210.5,268.833 210.5,274.167 210.5,279.5C 212.167,279.5 213.833,279.5 215.5,279.5C 215.5,280.5 215.5,281.5 215.5,282.5C 212.5,282.5 209.5,282.5 206.5,282.5C 206.5,276.167 206.5,269.833 206.5,263.5C 207.833,263.5 209.167,263.5 210.5,263.5 Z"/></g>
<g><path style="opacity:1" fill="#5e3c08" d="M 210.5,263.5 C 211.487,268.305 211.821,273.305 211.5,278.5C 213.099,278.232 214.432,278.566 215.5,279.5C 213.833,279.5 212.167,279.5 210.5,279.5C 210.5,274.167 210.5,268.833 210.5,263.5 Z"/></g>
<g><path style="opacity:1" fill="#ec9613" d="M 216.5,263.5 C 220.5,263.5 224.5,263.5 228.5,263.5C 228.5,264.5 228.5,265.5 228.5,266.5C 227.167,266.5 225.833,266.5 224.5,266.5C 224.5,271.833 224.5,277.167 224.5,282.5C 223.167,282.5 221.833,282.5 220.5,282.5C 220.5,277.167 220.5,271.833 220.5,266.5C 219.167,266.5 217.833,266.5 216.5,266.5C 216.5,265.5 216.5,264.5 216.5,263.5 Z"/></g>
<g><path style="opacity:1" fill="#e39013" d="M 233.5,262.5 C 236.272,262.22 238.772,262.887 241,264.5C 241.667,269.833 241.667,275.167 241,280.5C 238.159,282.504 234.993,283.004 231.5,282C 230.874,281.25 230.374,280.416 230,279.5C 229.333,274.833 229.333,270.167 230,265.5C 231.145,264.364 232.312,263.364 233.5,262.5 Z"/></g>
<g><path style="opacity:1" fill="#e79313" d="M 250.5,276.5 C 250.44,275.957 250.107,275.624 249.5,275.5C 248.526,277.743 248.192,280.076 248.5,282.5C 247.167,282.5 245.833,282.5 244.5,282.5C 244.5,276.167 244.5,269.833 244.5,263.5C 255.699,261.35 259.032,265.35 254.5,275.5C 255.577,277.729 256.244,280.063 256.5,282.5C 255.167,282.5 253.833,282.5 252.5,282.5C 252.405,280.214 251.738,278.214 250.5,276.5 Z"/></g>
<g><path style="opacity:1" fill="#e39013" d="M 267.5,263.5 C 269.604,263.201 271.604,263.534 273.5,264.5C 275.217,270.418 276.55,276.418 277.5,282.5C 274.05,283.244 272.384,281.91 272.5,278.5C 271.022,278.238 269.689,278.571 268.5,279.5C 267.616,281.942 265.949,282.775 263.5,282C 264.637,275.815 265.971,269.648 267.5,263.5 Z"/></g>
<g><path style="opacity:1" fill="#ea9413" d="M 279.5,263.5 C 281.144,263.286 282.644,263.62 284,264.5C 286.895,273.898 288.062,273.564 287.5,263.5C 288.833,263.5 290.167,263.5 291.5,263.5C 291.5,269.833 291.5,276.167 291.5,282.5C 290.022,282.762 288.689,282.429 287.5,281.5C 284.135,271.972 282.802,272.306 283.5,282.5C 282.167,282.5 280.833,282.5 279.5,282.5C 279.5,276.167 279.5,269.833 279.5,263.5 Z"/></g>
<g><path style="opacity:1" fill="#e99413" d="M 294.5,263.5 C 303.372,260.892 307.372,264.059 306.5,273C 306.904,281.414 302.904,284.58 294.5,282.5C 294.5,276.167 294.5,269.833 294.5,263.5 Z"/></g>
<g><path style="opacity:1" fill="#e99413" d="M 317.5,282.5 C 317.5,277.167 317.5,271.833 317.5,266.5C 316.167,266.5 314.833,266.5 313.5,266.5C 313.5,265.5 313.5,264.5 313.5,263.5C 317.167,263.5 320.833,263.5 324.5,263.5C 324.5,264.5 324.5,265.5 324.5,266.5C 323.5,266.5 322.5,266.5 321.5,266.5C 321.5,271.833 321.5,277.167 321.5,282.5C 320.167,282.5 318.833,282.5 317.5,282.5 Z"/></g>
<g><path style="opacity:1" fill="#e79313" d="M 332.5,276.5 C 332.44,275.957 332.107,275.624 331.5,275.5C 330.526,277.743 330.192,280.076 330.5,282.5C 329.167,282.5 327.833,282.5 326.5,282.5C 326.5,276.167 326.5,269.833 326.5,263.5C 337.699,261.35 341.032,265.35 336.5,275.5C 337.577,277.729 338.244,280.063 338.5,282.5C 337.167,282.5 335.833,282.5 334.5,282.5C 334.405,280.214 333.738,278.214 332.5,276.5 Z"/></g>
<g><path style="opacity:1" fill="#e79313" d="M 343.5,263.5 C 345.833,263.5 348.167,263.5 350.5,263.5C 351.629,269.813 352.629,276.146 353.5,282.5C 352.167,282.5 350.833,282.5 349.5,282.5C 349.5,281.167 349.5,279.833 349.5,278.5C 347.833,278.5 346.167,278.5 344.5,278.5C 344.5,279.833 344.5,281.167 344.5,282.5C 343.167,282.5 341.833,282.5 340.5,282.5C 341.371,276.146 342.371,269.813 343.5,263.5 Z"/></g>
<g><path style="opacity:1" fill="#eb9513" d="M 362.5,270.5 C 362.783,271.289 363.283,271.956 364,272.5C 364.498,269.518 364.665,266.518 364.5,263.5C 365.5,263.5 366.5,263.5 367.5,263.5C 367.5,269.833 367.5,276.167 367.5,282.5C 366.167,282.5 364.833,282.5 363.5,282.5C 360.408,269.576 359.075,269.576 359.5,282.5C 358.167,282.5 356.833,282.5 355.5,282.5C 355.5,276.167 355.5,269.833 355.5,263.5C 360.243,263.268 362.576,265.602 362.5,270.5 Z"/></g>
<g><path style="opacity:1" fill="#87560b" d="M 364.5,263.5 C 364.665,266.518 364.498,269.518 364,272.5C 363.283,271.956 362.783,271.289 362.5,270.5C 363.167,268.167 363.833,265.833 364.5,263.5 Z"/></g>
<g><path style="opacity:1" fill="#e79313" d="M 372.5,263.5 C 375.167,263.5 377.833,263.5 380.5,263.5C 380.5,264.5 380.5,265.5 380.5,266.5C 378.5,266.5 376.5,266.5 374.5,266.5C 374.5,267.833 374.5,269.167 374.5,270.5C 381.154,270.634 383.321,273.967 381,280.5C 380.5,281 380,281.5 379.5,282C 376.518,282.498 373.518,282.665 370.5,282.5C 370.5,281.5 370.5,280.5 370.5,279.5C 372.527,279.662 374.527,279.495 376.5,279C 377.833,277.667 377.833,276.333 376.5,275C 370.876,274.21 369.043,271.043 371,265.5C 371.717,264.956 372.217,264.289 372.5,263.5 Z"/></g>
<g><path style="opacity:1" fill="#170e02" d="M 234.5,266.5 C 235.5,266.5 236.5,266.5 237.5,266.5C 237.5,270.833 237.5,275.167 237.5,279.5C 236.178,279.67 235.011,279.337 234,278.5C 233.238,274.413 233.404,270.413 234.5,266.5 Z"/></g>
<g><path style="opacity:1" fill="#1b1102" d="M 176.5,266.5 C 180.35,266.701 181.35,268.534 179.5,272C 178.552,272.483 177.552,272.649 176.5,272.5C 176.5,270.5 176.5,268.5 176.5,266.5 Z"/></g>
<g><path style="opacity:1" fill="#1e1404" d="M 248.5,266.5 C 252.35,266.701 253.35,268.534 251.5,272C 250.552,272.483 249.552,272.649 248.5,272.5C 248.5,270.5 248.5,268.5 248.5,266.5 Z"/></g>
<g><path style="opacity:1" fill="#1e1404" d="M 298.5,266.5 C 299.822,266.33 300.989,266.663 302,267.5C 302.667,271.167 302.667,274.833 302,278.5C 300.989,279.337 299.822,279.67 298.5,279.5C 298.5,275.167 298.5,270.833 298.5,266.5 Z"/></g>
<g><path style="opacity:1" fill="#563707" d="M 313.5,266.5 C 314.833,266.5 316.167,266.5 317.5,266.5C 317.5,271.833 317.5,277.167 317.5,282.5C 316.513,277.695 316.179,272.695 316.5,267.5C 315.209,267.737 314.209,267.404 313.5,266.5 Z"/></g>
<g><path style="opacity:1" fill="#1e1404" d="M 330.5,266.5 C 334.35,266.701 335.35,268.534 333.5,272C 332.552,272.483 331.552,272.649 330.5,272.5C 330.5,270.5 330.5,268.5 330.5,266.5 Z"/></g>
<g><path style="opacity:1" fill="#211604" d="M 346.5,267.5 C 347.531,269.961 348.198,272.627 348.5,275.5C 347.325,275.719 346.325,275.386 345.5,274.5C 346.374,272.253 346.708,269.92 346.5,267.5 Z"/></g>
<g><path style="opacity:1" fill="#714809" d="M 198.5,270.5 C 200.167,270.5 201.833,270.5 203.5,270.5C 203.768,272.099 203.434,273.432 202.5,274.5C 202.5,273.5 202.5,272.5 202.5,271.5C 200.901,271.768 199.568,271.434 198.5,270.5 Z"/></g>
<g><path style="opacity:1" fill="#211604" d="M 269.5,269.5 C 270.693,269.97 271.36,270.97 271.5,272.5C 271.167,273.5 270.833,274.5 270.5,275.5C 269.534,273.604 269.201,271.604 269.5,269.5 Z"/></g>
<g><path style="opacity:1" fill="#583807" d="M 250.5,276.5 C 249.833,278.5 249.167,280.5 248.5,282.5C 248.192,280.076 248.526,277.743 249.5,275.5C 250.107,275.624 250.44,275.957 250.5,276.5 Z"/></g>
<g><path style="opacity:1" fill="#583807" d="M 332.5,276.5 C 331.833,278.5 331.167,280.5 330.5,282.5C 330.192,280.076 330.526,277.743 331.5,275.5C 332.107,275.624 332.44,275.957 332.5,276.5 Z"/></g>
<g><path style="opacity:1" fill="#754a09" d="M 165.5,257.5 C 166.494,267.653 166.828,277.986 166.5,288.5C 240.335,288.167 314.002,288.501 387.5,289.5C 313.5,289.5 239.5,289.5 165.5,289.5C 165.5,278.833 165.5,268.167 165.5,257.5 Z"/></g>
<g><path style="opacity:1" fill="#e49113" d="M 313.5,295.5 C 315.604,295.201 317.604,295.534 319.5,296.5C 318.047,299.298 317.047,302.298 316.5,305.5C 315.796,302.005 314.796,298.672 313.5,295.5 Z"/></g>
<g><path style="opacity:1" fill="#cc8211" d="M 341.5,295.5 C 343.288,295.215 344.955,295.548 346.5,296.5C 343.833,297.833 343.833,299.167 346.5,300.5C 343.833,301.833 343.833,303.167 346.5,304.5C 344.955,305.452 343.288,305.785 341.5,305.5C 341.5,302.167 341.5,298.833 341.5,295.5 Z"/></g>
<g><path style="opacity:1" fill="#392507" d="M 355.5,295.5 C 356.167,295.5 356.833,295.5 357.5,295.5C 357.5,298.833 357.5,302.167 357.5,305.5C 356.833,305.167 356.167,304.833 355.5,304.5C 355.5,302.833 355.5,301.167 355.5,299.5C 354.325,299.719 353.325,299.386 352.5,298.5C 353.993,297.859 354.993,296.859 355.5,295.5 Z"/></g>
<g><path style="opacity:1" fill="#de8d12" d="M 357.5,295.5 C 362.443,295.288 363.11,296.288 359.5,298.5C 362.167,299.833 362.167,301.167 359.5,302.5C 363.11,304.712 362.443,305.712 357.5,305.5C 357.5,302.167 357.5,298.833 357.5,295.5 Z"/></g>
<g><path style="opacity:1" fill="#ea9513" d="M 363.5,295.5 C 365.467,295.261 367.301,295.594 369,296.5C 369.219,299.747 369.052,302.747 368.5,305.5C 367.667,304.5 366.833,303.5 366,302.5C 365.751,303.624 365.251,304.624 364.5,305.5C 363.513,302.232 363.18,298.898 363.5,295.5 Z"/></g>
<g><path style="opacity:1" fill="#553607" d="M 379.5,295.5 C 380.167,295.833 380.833,296.167 381.5,296.5C 381.5,297.833 381.5,299.167 381.5,300.5C 380.167,301.5 380.167,302.5 381.5,303.5C 381.5,304.167 381.5,304.833 381.5,305.5C 380.833,305.5 380.167,305.5 379.5,305.5C 379.5,302.167 379.5,298.833 379.5,295.5 Z"/></g>
<g><path style="opacity:1" fill="#db8b12" d="M 381.5,305.5 C 381.5,304.833 381.5,304.167 381.5,303.5C 382.675,303.719 383.675,303.386 384.5,302.5C 383.398,301.824 382.398,301.158 381.5,300.5C 381.5,299.167 381.5,297.833 381.5,296.5C 383.035,295.212 384.701,295.212 386.5,296.5C 382.875,297.643 382.709,298.976 386,300.5C 387.177,304.492 385.677,306.158 381.5,305.5 Z"/></g>
<g><path style="opacity:1" fill="#e69313" d="M 387.5,289.5 C 394.957,294.665 396.457,301.332 392,309.5C 386.408,316.884 378.908,321.051 369.5,322C 358.794,322.812 348.127,322.478 337.5,321C 318.786,316.207 300.119,311.207 281.5,306C 273.148,304.775 264.815,303.441 256.5,302C 238.799,300.076 221.799,302.576 205.5,309.5C 205.5,309.167 205.5,308.833 205.5,308.5C 231.725,295.984 259.058,293.151 287.5,300C 307.439,305.318 327.439,310.318 347.5,315C 357.801,316.392 368.134,316.726 378.5,316C 390.597,313.608 394.43,306.775 390,295.5C 388.736,293.393 386.903,292.393 384.5,292.5C 385.9,291.9 386.9,290.9 387.5,289.5 Z"/></g>
<g><path style="opacity:1" fill="#d78912" d="M 320.5,295.5 C 322.467,295.261 324.301,295.594 326,296.5C 325.947,298.936 326.113,301.269 326.5,303.5C 327.549,300.92 328.216,298.254 328.5,295.5C 329.833,295.5 331.167,295.5 332.5,295.5C 333.812,307.413 334.479,307.413 334.5,295.5C 336.467,295.261 338.301,295.594 340,296.5C 341.945,305.586 338.778,307.919 330.5,303.5C 328.477,305.173 326.144,305.84 323.5,305.5C 323.404,301.689 322.738,301.689 321.5,305.5C 320.513,302.232 320.18,298.898 320.5,295.5 Z"/></g>
<g><path style="opacity:1" fill="#1e1403" d="M 336.5,297.5 C 337.693,297.97 338.36,298.97 338.5,300.5C 338.167,301.5 337.833,302.5 337.5,303.5C 336.534,301.604 336.201,299.604 336.5,297.5 Z"/></g>
<g><path style="opacity:1" fill="#3d2708" d="M 322.5,297.5 C 324.973,297.947 325.14,298.947 323,300.5C 322.517,299.552 322.351,298.552 322.5,297.5 Z"/></g>
<g><path style="opacity:1" fill="#251906" d="M 365.5,297.5 C 367.465,297.948 367.798,298.948 366.5,300.5C 365.614,299.675 365.281,298.675 365.5,297.5 Z"/></g>
<g><path style="opacity:1" fill="#d78912" d="M 379.5,295.5 C 379.5,298.833 379.5,302.167 379.5,305.5C 377.763,302.992 376.93,299.992 377,296.5C 376.047,299.432 375.547,302.432 375.5,305.5C 374.167,305.5 372.833,305.5 371.5,305.5C 371.33,303.152 370.997,300.818 370.5,298.5C 370.833,297.5 371.167,296.5 371.5,295.5C 373.421,300.492 374.421,300.492 374.5,295.5C 376.167,295.5 377.833,295.5 379.5,295.5 Z"/></g>
<g><path style="opacity:1" fill="#da8b12" d="M 355.5,295.5 C 354.993,296.859 353.993,297.859 352.5,298.5C 353.325,299.386 354.325,299.719 355.5,299.5C 355.5,301.167 355.5,302.833 355.5,304.5C 353.965,305.788 352.299,305.788 350.5,304.5C 354.125,303.357 354.291,302.024 351,300.5C 349.823,296.508 351.323,294.842 355.5,295.5 Z"/></g>
<g><path style="opacity:1" fill="#020100" d="M 381.5,300.5 C 382.398,301.158 383.398,301.824 384.5,302.5C 383.675,303.386 382.675,303.719 381.5,303.5C 380.167,302.5 380.167,301.5 381.5,300.5 Z"/></g>
<g><path style="opacity:1" fill="#060300" d="M 265.5,315.5 C 264.833,315.5 264.5,315.833 264.5,316.5C 256.359,317.032 248.359,316.366 240.5,314.5C 239.133,315.225 237.8,315.892 236.5,316.5C 235.508,316.672 234.842,316.338 234.5,315.5C 244.195,308.827 254.861,306.494 266.5,308.5C 266.007,310.806 265.674,313.139 265.5,315.5 Z"/></g>
<g><path style="opacity:1" fill="#6b440b" d="M 205.5,308.5 C 205.5,308.833 205.5,309.167 205.5,309.5C 204.125,311.07 202.459,311.903 200.5,312C 201.846,310.331 203.513,309.164 205.5,308.5 Z"/></g>
<g><path style="opacity:1" fill="#db8e00" d="M 295.5,316.5 C 288.938,316.663 282.605,315.996 276.5,314.5C 278.303,313.954 279.97,313.12 281.5,312C 277.238,311.06 273.072,309.894 269,308.5C 268.503,310.81 268.337,313.143 268.5,315.5C 267.5,315.5 266.5,315.5 265.5,315.5C 265.674,313.139 266.007,310.806 266.5,308.5C 254.861,306.494 244.195,308.827 234.5,315.5C 234.167,315.5 233.833,315.5 233.5,315.5C 243.948,306.913 255.948,304.08 269.5,307C 279.343,310.128 289.343,312.628 299.5,314.5C 301.801,313.604 304.134,313.438 306.5,314C 303.074,315.653 299.407,316.487 295.5,316.5 Z"/></g>
<g><path style="opacity:1" fill="#080400" d="M 276.5,314.5 C 273.904,315.265 271.237,315.599 268.5,315.5C 268.337,313.143 268.503,310.81 269,308.5C 273.072,309.894 277.238,311.06 281.5,312C 279.97,313.12 278.303,313.954 276.5,314.5 Z"/></g>
<g><path style="opacity:1" fill="#976101" d="M 276.5,314.5 C 282.605,315.996 288.938,316.663 295.5,316.5C 291.702,317.483 287.702,317.817 283.5,317.5C 277.355,316.51 271.022,316.177 264.5,316.5C 264.5,315.833 264.833,315.5 265.5,315.5C 266.5,315.5 267.5,315.5 268.5,315.5C 271.237,315.599 273.904,315.265 276.5,314.5 Z"/></g>
<g><path style="opacity:1" fill="#6e4702" d="M 232.5,315.5 C 226.588,317.456 220.255,318.123 213.5,317.5C 219.733,316.797 226.066,316.13 232.5,315.5 Z"/></g>
<g><path style="opacity:1" fill="#ec9900" d="M 264.5,316.5 C 271.022,316.177 277.355,316.51 283.5,317.5C 281.167,317.5 278.833,317.5 276.5,317.5C 262.99,317.829 249.656,317.496 236.5,316.5C 237.8,315.892 239.133,315.225 240.5,314.5C 248.359,316.366 256.359,317.032 264.5,316.5 Z"/></g>
<g><path style="opacity:1" fill="#ed9900" d="M 301.5,317.5 C 302.601,316.402 303.934,316.235 305.5,317C 304.809,318.067 304.309,319.234 304,320.5C 303.764,318.881 302.931,317.881 301.5,317.5 Z"/></g>
<g><path style="opacity:1" fill="#734b01" d="M 233.5,315.5 C 233.833,315.5 234.167,315.5 234.5,315.5C 234.842,316.338 235.508,316.672 236.5,316.5C 249.656,317.496 262.99,317.829 276.5,317.5C 263.01,318.496 249.344,318.829 235.5,318.5C 234.449,317.778 233.782,316.778 233.5,315.5 Z"/></g>
<g><path style="opacity:1" fill="#9a6401" d="M 210.5,319.5 C 213.311,319.826 215.978,320.659 218.5,322C 221.085,325.837 220.751,326.171 217.5,323C 211.733,320.3 206.9,321.467 203,326.5C 202.837,324.613 203.671,323.113 205.5,322C 207.315,321.243 208.981,320.41 210.5,319.5 Z"/></g>
<g><path style="opacity:1" fill="#a76c00" d="M 232.5,315.5 C 232.833,315.5 233.167,315.5 233.5,315.5C 233.782,316.778 234.449,317.778 235.5,318.5C 226.494,318.334 217.494,318.5 208.5,319C 203.313,319.561 198.646,321.395 194.5,324.5C 193.707,323.645 194.04,322.811 195.5,322C 201.074,318.752 207.074,317.252 213.5,317.5C 220.255,318.123 226.588,317.456 232.5,315.5 Z"/></g>
<g><path style="opacity:1" fill="#935f00" d="M 282.5,319.5 C 286.544,318.958 290.211,319.791 293.5,322C 287.496,319.142 282.33,320.309 278,325.5C 278.46,322.854 279.96,320.854 282.5,319.5 Z"/></g>
<g><path style="opacity:1" fill="#8b5902" d="M 268.5,323.5 C 269.774,324.189 269.774,325.023 268.5,326C 265.134,328.184 261.467,329.517 257.5,330C 249.5,330.667 241.5,330.667 233.5,330C 242.153,329.156 250.82,328.49 259.5,328C 263.11,327.528 266.11,326.028 268.5,323.5 Z"/></g>
</svg>
